<?xml version="1.0" encoding="UTF-8" standalone="no"?>
<!-- Created with Inkscape (http://www.inkscape.org/) -->

<svg
   width="86.400002mm"
   height="118.00001mm"
   viewBox="0 0 86.400002 118"
   version="1.1"
   id="svg1"
   xml:space="preserve"
   inkscape:version="1.4 (e7c3feb100, 2024-10-09)"
   sodipodi:docname="LogiErgoM575.svg"
   xmlns:inkscape="http://www.inkscape.org/namespaces/inkscape"
   xmlns:sodipodi="http://sodipodi.sourceforge.net/DTD/sodipodi-0.dtd"
   xmlns="http://www.w3.org/2000/svg"
   xmlns:svg="http://www.w3.org/2000/svg"><sodipodi:namedview
     id="namedview1"
     pagecolor="#ffffff"
     bordercolor="#999999"
     borderopacity="1"
     inkscape:showpageshadow="2"
     inkscape:pageopacity="0"
     inkscape:pagecheckerboard="0"
     inkscape:deskcolor="#d1d1d1"
     inkscape:document-units="mm"
     showgrid="true"
     inkscape:zoom="2.0157702"
     inkscape:cx="207.11686"
     inkscape:cy="225.72017"
     inkscape:window-width="2380"
     inkscape:window-height="1293"
     inkscape:window-x="0"
     inkscape:window-y="0"
     inkscape:window-maximized="0"
     inkscape:current-layer="svg1" /><defs
     id="defs1" /><path
     style="fill:none;stroke:#000000;stroke-width:0.694877;stroke-linecap:round;stroke-linejoin:round;stroke-dasharray:none"
     d="M 37.598831,0.35248681 C 110.46433,2.6925516 93.035507,117.22469 38.776562,117.65222 c -6.22885,0.049 -15.569063,-5.22765 -11.367008,-11.6373 4.802382,-7.32537 21.300832,2.86082 29.64114,-4.55002 C 67.071916,92.560481 73.170718,76.385009 60.049975,65.330569 52.632996,59.081637 28.16153,56.327156 21.539172,60.166392 15.026947,63.941781 28.479303,72.813847 23.277124,75.334828 18.122146,77.832939 0.3675474,61.032187 0.34745683,54.149979 0.32736636,47.267773 17.625033,30.560504 22.870318,33.214485 c 6.553079,3.31569 -7.758321,10.010094 -1.002821,13.666363 13.030117,7.05227 46.698899,8.456007 49.763389,-1.165802 C 75.912812,32.27076 69.039814,24.170501 60.431046,18.433295 54.355816,14.384535 47.743583,10.795713 35.193885,11.20529 24.702335,11.547695 28.905372,0.07329766 37.598831,0.35248681 Z"
     id="path1-6"
     sodipodi:nodetypes="ssssssszssssss" /></svg>
