<?xml version="1.0" encoding="UTF-8" standalone="no"?>
<!-- Created with Inkscape (http://www.inkscape.org/) -->

<svg
   width="86.5mm"
   height="120mm"
   viewBox="0 0 86.500001 120"
   version="1.1"
   id="svg1"
   xml:space="preserve"
   inkscape:version="1.4 (e7c3feb100, 2024-10-09)"
   sodipodi:docname="LogiErgoM575.svg"
   xmlns:inkscape="http://www.inkscape.org/namespaces/inkscape"
   xmlns:sodipodi="http://sodipodi.sourceforge.net/DTD/sodipodi-0.dtd"
   xmlns="http://www.w3.org/2000/svg"
   xmlns:svg="http://www.w3.org/2000/svg"><sodipodi:namedview
     id="namedview1"
     pagecolor="#ffffff"
     bordercolor="#999999"
     borderopacity="1"
     inkscape:showpageshadow="2"
     inkscape:pageopacity="0"
     inkscape:pagecheckerboard="0"
     inkscape:deskcolor="#d1d1d1"
     inkscape:document-units="mm"
     showgrid="true"
     inkscape:zoom="1.4253648"
     inkscape:cx="188.37283"
     inkscape:cy="223.80236"
     inkscape:window-width="2380"
     inkscape:window-height="1293"
     inkscape:window-x="0"
     inkscape:window-y="0"
     inkscape:window-maximized="0"
     inkscape:current-layer="svg1" /><defs
     id="defs1" /><path
     style="fill:none;stroke:#000000;stroke-width:0.695459;stroke-linecap:round;stroke-linejoin:round;stroke-dasharray:none"
     d="M 35.069746,0.35028269 C 110.3568,1.7735829 94.525473,118.82957 38.647563,119.65124 c -6.233408,0.0916 -10.313129,-6.00974 -4.561314,-9.47427 7.788419,-4.69125 13.085733,-2.38857 21.989662,-7.94959 11.379793,-7.107332 17.153998,-25.844173 4.022644,-36.908213 -7.422978,-6.254359 -25.351403,-13.933358 -39.460748,-5.62806 -6.492376,3.82166 7.86454,13.117836 2.658155,15.641007 C 18.136814,77.832394 0.36785502,61.017051 0.3477482,54.128867 0.32764147,47.240684 17.244999,31.513683 22.888826,33.175191 28.202999,34.739652 14.139806,43.784634 20.900769,47.444078 33.941425,54.502473 59.472962,55.397321 65.28477,44.108797 75.556002,24.158537 61.875399,14.120624 33.312543,9.7275111 22.929014,8.1304708 26.366325,0.18574178 35.069746,0.35028269 Z"
     id="path1-6"
     sodipodi:nodetypes="ssssssszsssss" /></svg>
